<svg width="32" height="32" viewBox="0 0 32 32" fill="none" xmlns="http://www.w3.org/2000/svg">
<path d="M30.1937 18.9397C29.9136 21.597 29.5304 24.2444 29.1064 26.8848C29.0116 27.4739 28.9559 28.0885 28.8098 28.6691C28.6359 29.3622 27.6608 29.7297 26.9937 29.683C25.2122 29.557 23.4165 29.5315 21.632 29.4557C18.1421 29.3077 14.6522 29.1597 11.1624 29.0118C8.58805 28.9027 6.01374 28.7937 3.43868 28.6846C3.2625 28.6768 3.06598 28.691 2.89205 28.6613C2.23624 28.5494 2.25582 27.6233 2.21215 27.1517C2.01864 25.0523 1.83643 22.9515 1.67831 20.8493C1.63012 20.2064 1.58419 19.5642 1.54278 18.9206C1.51341 18.4682 0.760474 18.4646 0.789838 18.9206C0.950215 21.4115 1.16405 23.8989 1.38918 26.3856C1.49008 27.4972 1.40499 29.2822 2.98165 29.3736C5.21487 29.5017 7.45412 29.5633 9.68885 29.6582C13.3316 29.8126 16.9743 29.9669 20.6178 30.1213C22.726 30.2105 24.8395 30.2678 26.9463 30.3896C26.9606 30.3903 26.9756 30.3903 26.9899 30.3917C26.9779 30.391 26.7972 30.3818 27.0389 30.3995C27.1352 30.4066 27.2286 30.4066 27.325 30.3981C27.852 30.3514 28.3761 30.1468 28.7955 29.8465C29.3941 29.4182 29.5251 28.9254 29.6328 28.2846C30.0318 25.9062 30.3895 23.5201 30.6906 21.129C30.7825 20.4004 30.8676 19.6719 30.9444 18.9419C30.9948 18.4866 30.2411 18.4894 30.1937 18.9397Z" fill="#474B33"/>
<path d="M1.24235 17.3976C1.92849 17.3976 2.48471 16.8746 2.48471 16.2293C2.48471 15.5841 1.92849 15.0611 1.24235 15.0611C0.55622 15.0611 0 15.5841 0 16.2293C0 16.8746 0.55622 17.3976 1.24235 17.3976Z" fill="#474B33"/>
<path d="M30.7576 17.3976C31.4438 17.3976 32 16.8746 32 16.2293C32 15.5841 31.4438 15.0611 30.7576 15.0611C30.0715 15.0611 29.5153 15.5841 29.5153 16.2293C29.5153 16.8746 30.0715 17.3976 30.7576 17.3976Z" fill="#474B33"/>
<path d="M1.8349 13.104C2.32959 10.6421 2.82352 8.18021 3.3182 5.71832C3.38822 5.37067 3.45749 5.02372 3.52751 4.67607C3.61636 4.23212 2.947 4.04732 2.80168 4.48773C2.80093 4.48914 2.80093 4.49127 2.80017 4.49268C3.04639 4.52384 3.29335 4.5557 3.53956 4.58686C3.52827 4.75254 3.56591 4.49622 3.58022 4.44808C3.61335 4.34045 3.65401 4.18822 3.7406 4.10467C3.843 4.00555 3.97853 4.00767 4.12234 3.97935C4.46116 3.91208 4.79999 3.84482 5.13881 3.77968C6.21401 3.57151 7.29147 3.37397 8.37119 3.18916C10.4094 2.83939 12.4566 2.53209 14.5129 2.28994C17.9569 1.88423 21.4317 1.64703 24.9043 1.72138C26.4184 1.75395 27.9318 1.8467 29.4362 2.01451C29.6041 2.03292 29.772 2.05274 29.9399 2.07328C30.1011 2.0931 30.3157 2.07044 30.4625 2.13983C30.6635 2.23471 30.6198 2.36145 30.607 2.52926C30.5973 2.65813 30.607 2.79124 30.607 2.9201C30.607 4.71218 30.607 6.50426 30.607 8.29704C30.607 9.89086 30.607 11.4854 30.607 13.0792C30.607 13.5345 31.36 13.5359 31.36 13.0792C31.36 9.70252 31.36 6.32653 31.36 2.94984C31.36 2.81177 31.351 2.67087 31.36 2.5328C31.366 2.43509 31.3818 2.16532 31.29 1.97981C31.1371 1.6711 30.8359 1.47639 30.4828 1.41621C29.7479 1.29159 28.9702 1.25123 28.2255 1.18751C27.4206 1.11882 26.6134 1.07068 25.8063 1.04023C22.1997 0.904994 18.5856 1.12166 15.0046 1.52595C12.6238 1.79501 10.2543 2.1455 7.89683 2.55475C6.61759 2.77637 5.34135 3.01569 4.06888 3.26847C3.59829 3.36193 3.25194 3.44335 3.01702 3.86818C2.89806 4.08414 2.80319 4.34258 2.78662 4.58827C2.75876 4.99894 3.40403 5.05204 3.52601 4.68244C3.52676 4.68103 3.52676 4.6789 3.52751 4.67749C3.28582 4.61447 3.04337 4.55216 2.80168 4.48914C2.307 6.95104 1.81307 9.41293 1.31839 11.8748C1.24836 12.2225 1.17909 12.5694 1.10907 12.9171C1.01947 13.361 1.7453 13.5522 1.8349 13.104Z" fill="#474B33"/>
<path d="M4.74352 14.8486C4.96338 15.9206 6.62587 15.8399 7.00234 15.6275C7.58361 15.2996 7.6047 13.9154 7.6047 11.804C7.6047 9.69258 7.04827 7.98051 6.36234 7.98051C5.67641 7.98051 5.43924 9.33006 4.89411 11.3792C4.74352 11.9456 4.547 13.9749 4.66822 14.5654" fill="#474B33"/>
<path d="M7.6062 11.3048L7.66041 10.7901C7.6702 10.6959 7.71462 10.6081 7.7854 10.5416C7.89759 10.4361 8.07227 10.4198 8.20328 10.5019L8.42314 11.467C8.4254 11.4783 8.44046 11.4818 8.44874 11.4741L10.0036 9.94183C10.0073 9.93829 10.0088 9.93263 10.0073 9.92767L9.70841 9.01499C9.61128 8.61707 9.33872 8.24676 9.08347 7.9161L8.73034 7.4587C8.72959 7.45799 8.72883 7.45729 8.72808 7.45658C8.05495 6.88943 7.65966 6.95032 6.92403 7.28169C6.77796 7.34754 6.64394 7.43675 6.52874 7.54438C6.52874 7.54438 6.52799 7.54508 6.52799 7.54579L6.02351 8.09807C5.93241 8.19791 5.91509 8.34022 5.9806 8.45705L7.57759 11.3098C7.58512 11.3225 7.60469 11.319 7.6062 11.3048Z" fill="#474B33"/>
<path d="M13.699 14.7219C13.4791 15.7939 11.8167 15.7131 11.4402 15.5007C10.8589 15.1729 10.6918 13.7738 10.6918 11.6624C10.6918 9.55099 11.3935 7.85379 12.0802 7.85379C12.7669 7.85379 14.0175 8.89179 14.2306 11.096C14.3059 11.8748 13.8955 13.8489 13.7743 14.4387" fill="#474B33"/>
<path d="M12.5673 11.3197L12.5131 10.805C12.5033 10.7108 12.4589 10.623 12.3881 10.5564C12.2759 10.4509 12.1013 10.4346 11.9703 10.5168L11.7504 11.4818C11.7481 11.4932 11.7331 11.4967 11.7248 11.4889L10.17 9.95671C10.1662 9.95317 9.71218 10.2513 9.71369 10.2463L10.3913 9.04261C10.4885 8.64469 10.8348 8.26234 11.0901 7.93168L11.4432 7.47428C11.4439 7.47358 11.4447 7.47287 11.4455 7.47216C12.1329 6.89297 12.7127 6.92342 13.4784 7.2732C13.6102 7.33338 13.7555 7.45587 13.8549 7.55642L14.0055 7.76883L14.1508 8.11365C14.2095 8.17809 14.2223 8.87551 14.2065 9.39664C14.1944 9.74004 14.2306 11.0252 14.2306 11.2376L12.5959 11.3247C12.5892 11.3374 12.5688 11.3339 12.5673 11.3197Z" fill="#474B33"/>
<path d="M10.6165 9.82146C10.6556 9.78818 10.6428 9.77968 10.6007 9.78747C10.246 9.85049 9.87332 9.80376 9.57666 9.60975C9.14749 9.32936 8.55869 9.39663 8.35765 9.39663C7.89986 9.39663 8.43295 10.9543 8.35765 12.512C8.28612 13.9968 7.83059 15.2026 9.11059 15.2026C10.3153 15.2026 9.93883 14.353 9.93883 13.5033C9.93883 13.2286 9.93883 12.9369 10.0375 12.5758C10.0601 12.4929 10.121 12.4235 10.1497 12.3421L10.1783 12.2621C10.2189 12.1467 10.2777 12.0369 10.3522 11.9371L10.7068 11.4606C10.7437 11.411 10.7851 11.365 10.8288 11.3211C10.9591 11.1901 10.7693 11.2914 10.8424 10.6718C10.8326 10.6711 11.52 9.0426 10.6165 9.82146Z" fill="#474B33"/>
<path d="M16.5647 11.4854C16.5647 9.66712 16.1265 8.19296 15.5859 8.19296C15.0453 8.19296 14.833 9.67916 14.6071 11.4854C14.3812 13.2909 13.6282 15.4151 15.2847 15.4151C16.2635 15.4151 16.5647 13.3037 16.5647 11.4854Z" fill="#474B33"/>
<path d="M18.8988 12.2996C18.8988 10.4424 18.5284 8.26376 18.0706 8.26376C17.6128 8.26376 17.2423 9.75067 17.0165 11.5916C16.7906 13.4325 16.3388 14.9194 17.5435 15.2735C17.9802 15.4016 18.8988 14.1569 18.8988 12.2996Z" fill="#474B33"/>
<path d="M16.4442 9.79597L16.4887 9.26423C16.4894 9.25785 16.4902 9.25148 16.4917 9.24582C16.5647 8.89958 16.5662 8.82878 16.7153 8.68858L16.7432 8.63619C16.8659 8.54697 17.0165 8.47617 17.1144 8.48041C17.2777 8.48749 17.3801 8.5583 17.4547 8.71265C17.4607 8.7254 17.4652 8.73885 17.4675 8.75231L17.5096 8.99163C17.5127 9.00791 17.5119 9.02561 17.5096 9.0419C17.4765 9.2536 17.5797 9.23661 17.6414 9.32795L18.612 10.6633C18.688 10.7681 18.8235 12.8654 18.8823 10.6074C18.8823 10.6067 18.8823 10.606 18.8823 10.6053L18.8936 10.5401C18.8973 10.5189 18.8996 10.4969 18.9003 10.4757L18.8988 8.47617C18.8988 8.19295 18.6729 7.69731 18.6729 7.69731C18.6202 7.54862 18.566 7.4679 18.5058 7.35391C18.4343 7.21796 18.3304 7.0983 18.2061 7.0013L17.9953 6.84765C17.9727 6.83632 17.9501 6.81296 17.8545 6.78109C17.6866 6.72516 17.4938 6.68267 17.3176 6.70604L17.0165 6.77685C16.9992 6.78109 16.6551 6.90925 16.64 6.91846L16.2635 7.13087C16.2507 7.13866 15.9774 7.327 15.8118 7.4849L15.7101 7.58048C15.625 7.66049 15.5543 7.75325 15.5008 7.85521C15.4684 7.91752 15.4383 7.97557 15.4353 7.98053L15.226 8.47617C15.1981 8.52785 15.2019 8.58945 15.2365 8.63689L16.1393 9.87244C16.1935 9.94679 16.3027 9.96307 16.3787 9.90784C16.4164 9.88165 16.4405 9.84058 16.4442 9.79597Z" fill="#474B33"/>
<path d="M16.8282 12.0164C17.5144 12.0164 18.0706 11.7628 18.0706 11.45C18.0706 11.1371 17.5144 10.8835 16.8282 10.8835C16.1421 10.8835 15.5859 11.1371 15.5859 11.45C15.5859 11.7628 16.1421 12.0164 16.8282 12.0164Z" fill="#474B33"/>
<path d="M21.9106 10.7065C21.8504 10.9452 21.6523 11.7984 21.1945 13.4948C21.1155 13.7887 21.4212 14.792 21.3082 14.7778C21.2894 14.7757 20.7864 14.433 20.7812 14.4238C20.5357 13.9862 20.172 13.7823 20.0282 13.0785C20.0034 12.9574 20.0004 12.8668 19.9883 12.8095C19.8023 11.8748 19.6518 11.1668 19.6518 10.7065C19.6518 8.65391 20.1788 6.70606 21.0824 6.84767C22.1636 7.01689 22.4173 8.70984 21.9106 10.7065Z" fill="#474B33"/>
<path d="M24.6965 10.6711C24.308 12.7903 22.6635 15.2735 22.5129 14.7778C22.3413 14.2135 22.4377 12.8222 22.4377 10.6711C22.4377 8.52009 23.5671 7.2017 24.2447 7.34331C25.5676 7.61945 25.0729 8.6178 24.6965 10.6711Z" fill="#474B33"/>
<path d="M20.1035 13.999C20.1344 14.1725 20.1495 14.2284 20.1788 14.4238C20.2541 14.9195 20.8678 15.4901 21.0071 15.5567C21.1253 15.6133 21.4453 15.7663 21.8353 15.6983C22.0808 15.6551 22.2336 15.5454 22.5129 15.3443C22.6613 15.2374 22.8201 15.066 23.04 14.7778C23.2907 14.4486 23.7177 13.5742 23.7177 13.0077C23.7177 12.619 22.6635 12.6537 22.5129 13.0785C22.4565 13.2378 22.2871 13.9282 21.9859 14.353C21.9106 14.4592 21.6094 14.7778 21.4588 14.6362C21.2209 14.4125 21.0824 13.8574 21.0824 13.3617C21.0824 12.8718 20.2797 12.2529 20.1035 12.4413C20.0019 12.5496 20.0282 13.5742 20.1035 13.999Z" fill="#474B33"/>
<path d="M7.22147 21.3521C7.22147 19.3922 6.69742 17.8033 6.05065 17.8033C5.40387 17.8033 4.78796 19.4163 4.51766 21.3627C4.24735 23.3084 3.28961 25.8942 5.2706 25.8942C6.44142 25.8942 7.22147 23.312 7.22147 21.3521Z" fill="#474B33"/>
<path d="M10.0126 22.2301C10.0126 20.2284 9.56912 17.8805 9.02249 17.8805C8.47585 17.8805 8.03237 19.4828 7.76206 21.4675C7.49176 23.4514 7.59566 25.2301 9.03604 25.6117C9.55707 25.7491 10.0126 24.2317 10.0126 22.2301Z" fill="#474B33"/>
<path d="M7.00162 19.6025L7.05508 19.029C7.05583 19.0226 7.05658 19.0155 7.05809 19.0091C7.14543 18.6367 7.14769 18.5602 7.32613 18.4087L7.35926 18.3528C7.50609 18.2565 7.68604 18.18 7.8035 18.185C7.99851 18.1928 8.12124 18.2685 8.21009 18.4349C8.21761 18.4484 8.22213 18.4632 8.22514 18.4774L8.27559 18.7351C8.27936 18.7528 8.2786 18.7719 8.27559 18.7896C8.23568 19.0176 8.35917 18.9999 8.43296 19.0976L9.59399 20.5371C9.6851 20.6497 9.84698 22.9105 9.91701 20.4769C9.91701 20.4762 9.91701 20.4755 9.91701 20.4748L9.9298 20.4047C9.93432 20.3813 9.93658 20.3587 9.93809 20.3353L9.93658 18.1807C9.93658 17.8755 9.66628 17.341 9.66628 17.341C9.60303 17.1809 9.53827 17.0939 9.46674 16.9707C9.38091 16.8241 9.25667 16.6952 9.10834 16.5904L8.85611 16.4248C8.82976 16.4127 8.80265 16.3879 8.68745 16.3532C8.48717 16.2923 8.25601 16.247 8.04519 16.2725L7.68529 16.349C7.6642 16.3539 7.2531 16.4913 7.23503 16.5019L6.78477 16.7306C6.76971 16.7391 6.44293 16.9416 6.24491 17.1123L6.12293 17.2156C6.02129 17.302 5.9362 17.4019 5.87296 17.5116C5.8338 17.5789 5.79842 17.6412 5.79465 17.6468L5.3459 18.5305C5.31202 18.5857 5.51682 18.3018 5.55823 18.3535L6.63794 19.6853C6.7027 19.7653 6.83371 19.783 6.92406 19.7236C6.96924 19.6945 6.9971 19.6499 7.00162 19.6025Z" fill="#474B33"/>
<path d="M7.61149 21.3577C8.43193 21.3577 9.09704 21.0845 9.09704 20.7474C9.09704 20.4103 8.43193 20.1371 7.61149 20.1371C6.79104 20.1371 6.12593 20.4103 6.12593 20.7474C6.12593 21.0845 6.79104 21.3577 7.61149 21.3577Z" fill="#474B33"/>
<path d="M16.2364 21.1963C16.2364 19.2364 15.7124 17.6475 15.0656 17.6475C14.4188 17.6475 14.1651 19.2499 13.8948 21.1963C13.6245 23.142 12.724 25.4318 14.7049 25.4318C15.8765 25.4311 16.2364 23.1562 16.2364 21.1963Z" fill="#474B33"/>
<path d="M19.0276 22.0736C19.0276 20.0719 18.5841 17.724 18.0375 17.724C17.4908 17.724 17.0473 19.3263 16.777 21.311C16.5067 23.295 15.9669 24.898 17.4072 25.2789C17.929 25.417 19.0276 24.0752 19.0276 22.0736Z" fill="#474B33"/>
<path d="M16.0919 19.3759L16.1453 18.8024C16.1461 18.796 16.1468 18.7889 16.1483 18.7826C16.2357 18.4101 16.2379 18.3336 16.4164 18.1821L16.4495 18.1262C16.5963 18.0299 16.7763 17.9534 16.8937 17.9584C17.0887 17.9662 17.2115 18.0419 17.3003 18.2083C17.3079 18.2218 17.3124 18.2366 17.3154 18.2508L17.3658 18.5085C17.3696 18.5262 17.3688 18.5454 17.3658 18.5631C17.3259 18.7911 17.4494 18.7733 17.5232 18.8711L18.6842 20.3105C18.7753 20.4231 18.9372 22.6839 19.0072 20.2503C19.0072 20.2496 19.0072 20.2489 19.0072 20.2482L19.02 20.1781C19.0246 20.1548 19.0268 20.1321 19.0283 20.1087L19.0268 17.9541C19.0268 17.649 18.7565 17.1144 18.7565 17.1144C18.6933 16.9544 18.6285 16.8673 18.557 16.7441C18.4712 16.5975 18.3469 16.4686 18.1986 16.3639L17.9463 16.1982C17.92 16.1861 17.8929 16.1614 17.7777 16.1267C17.5774 16.0658 17.3463 16.0205 17.1354 16.0459L16.7755 16.1224C16.7544 16.1274 16.3433 16.2647 16.3253 16.2753L15.875 16.504C15.86 16.5125 15.5332 16.715 15.3351 16.8857L15.2132 16.9891C15.1115 17.0754 15.0264 17.1753 14.9632 17.285C14.924 17.3523 14.8887 17.4146 14.8849 17.4203L14.6349 17.9548C14.601 18.0101 14.6063 18.0766 14.6477 18.1283L15.7274 19.4602C15.7922 19.5402 15.9232 19.5579 16.0135 19.4984C16.0595 19.4672 16.0873 19.4233 16.0919 19.3759Z" fill="#474B33"/>
<path d="M16.5519 21.7684C17.3723 21.7684 18.0375 21.4951 18.0375 21.1581C18.0375 20.821 17.3723 20.5477 16.5519 20.5477C15.7315 20.5477 15.0663 20.821 15.0663 21.1581C15.0663 21.4951 15.7315 21.7684 16.5519 21.7684Z" fill="#474B33"/>
<path d="M27.6329 11.3792C27.4824 13.5741 27.9032 15.5213 26.3529 15.061C24.9224 14.6362 25.6 13.2909 25.8259 11.096C26.048 8.93571 25.6384 7.05654 27.0306 7.20169C28.3859 7.3433 27.7896 9.10068 27.6329 11.3792Z" fill="#474B33"/>
<path d="M27.7082 4.36949C27.6329 5.07754 27.4823 5.57318 26.9553 5.50237C26.502 5.44148 26.5035 4.99541 26.5035 4.36949C26.5035 3.74358 26.8047 3.16581 27.2565 3.23661C27.8671 3.3322 27.7835 3.65861 27.7082 4.36949Z" fill="#474B33"/>
<path d="M12.8625 20.9485C12.4792 23.1179 12.9197 25.6464 11.3694 25.1862C9.93882 24.7613 10.7671 22.4956 10.9929 20.3006C11.2151 18.1404 11.1066 16.1904 12.4988 16.3355C13.8541 16.4771 13.2518 18.7429 12.8625 20.9485Z" fill="#474B33"/>
<path d="M16.2635 23.416C16.3388 24.8321 14.8939 25.0446 13.8541 25.0446C12.8143 25.0446 10.5412 26.1066 11.2188 23.7701C11.4214 23.0719 12.9122 22.4134 13.8541 21.9999C14.9835 21.5043 16.2251 22.6938 16.2635 23.416Z" fill="#474B33"/>
<path d="M25.0601 22.2938C24.9977 24.4073 26.4282 26.1066 23.7801 25.9756C21.7623 25.8758 22.5129 23.8409 23.2531 22.0105C24.073 19.982 23.0656 17.9711 24.4578 18.1163C25.8131 18.2579 25.1272 20.011 25.0601 22.2938Z" fill="#474B33"/>
<path d="M28.6118 17.6808C28.4612 19.0969 27.5305 18.4597 25.8259 18.4597C24.1212 18.4597 22.3729 19.2775 22.1365 17.61C22.0612 17.079 23.866 17.1314 25.5247 16.7604C27.1059 16.4064 28.8519 15.425 28.6118 17.6808Z" fill="#474B33"/>
<path d="M20.4145 21.5185C21.1576 22.9204 20.6848 25.6606 19.1345 25.2003C17.7039 24.7755 18.3816 23.4302 18.6074 21.2352C18.8296 19.075 18.2596 16.5444 19.6518 16.6896C21.0071 16.8312 19.331 19.475 20.4145 21.5185Z" fill="#474B33"/>
<path d="M22.0612 20.7962C23.4165 22.4956 23.5121 26.4033 22.071 25.696C20.0937 24.7259 21.8353 22.2831 20.6306 21.0087C20.416 20.7814 20.6366 20.1477 20.7812 19.8758C20.9318 19.5926 21.1765 19.4821 21.3835 19.0969C21.7351 18.4441 21.6583 18.1524 21.943 17.9697C22.2547 17.7686 22.6951 17.8316 22.7494 17.8366C24.1039 17.9782 21.9972 20.7162 22.0612 20.7962Z" fill="#474B33"/>
<path d="M23.1153 18.8137C21.3805 21.3336 22.4858 17.8932 20.7812 17.8932C19.0765 17.8932 19.9529 23.2036 18.5976 18.4597C18.4501 17.9421 18.746 16.4233 20.4047 16.0523C21.9859 15.6983 24.4254 16.9105 23.1153 18.8137Z" fill="#474B33"/>
</svg>
