<svg width="90" height="84" viewBox="0 0 90 84" fill="none" xmlns="http://www.w3.org/2000/svg">
<path d="M84.9198 51.0469C84.132 58.5206 83.0541 65.9664 81.8619 73.3923C81.5951 75.0491 81.4384 76.7777 81.0275 78.4106C80.5384 80.3602 77.796 81.3937 75.9198 81.2623C70.9094 80.9078 65.8588 80.8361 60.84 80.623C51.0247 80.2068 41.2094 79.7906 31.3941 79.3744C24.1539 79.0678 16.9137 78.7611 9.6713 78.4544C9.17578 78.4325 8.62307 78.4723 8.1339 78.3887C6.28943 78.0741 6.34449 75.4693 6.22166 74.143C5.67743 68.2386 5.16496 62.3301 4.72025 56.4177C4.58472 54.6095 4.45554 52.8033 4.33907 50.9931C4.25648 49.7206 2.13884 49.7107 2.22142 50.9931C2.67248 57.9988 3.2739 64.9946 3.90708 71.9884C4.19084 75.1148 3.95155 80.1351 8.3859 80.392C14.6668 80.7525 20.9647 80.9257 27.2499 81.1926C37.4951 81.6267 47.7402 82.0608 57.9875 82.4949C63.917 82.7459 69.8612 82.9072 75.7864 83.2497C75.8266 83.2517 75.869 83.2517 75.9092 83.2557C75.8753 83.2537 75.3671 83.2278 76.0468 83.2776C76.3179 83.2975 76.5805 83.2975 76.8515 83.2736C78.3339 83.1421 79.8078 82.5666 80.9873 81.7223C82.6708 80.5175 83.0393 79.1315 83.3421 77.3293C84.4645 70.6402 85.4704 63.9292 86.3174 57.2043C86.5758 55.1551 86.8151 53.106 87.0311 51.0529C87.1729 49.7724 85.0532 49.7804 84.9198 51.0469Z" fill="#16180C"/>
<path d="M3.49412 46.7097C5.42387 46.7097 6.98824 45.2386 6.98824 43.4239C6.98824 41.6092 5.42387 40.1381 3.49412 40.1381C1.56437 40.1381 0 41.6092 0 43.4239C0 45.2386 1.56437 46.7097 3.49412 46.7097Z" fill="#16180C"/>
<path d="M86.5059 46.7097C88.4356 46.7097 90 45.2386 90 43.4239C90 41.6092 88.4356 40.1381 86.5059 40.1381C84.5761 40.1381 83.0117 41.6092 83.0117 43.4239C83.0117 45.2386 84.5761 46.7097 86.5059 46.7097Z" fill="#16180C"/>
<path d="M5.16069 34.6338C6.55199 27.7098 7.94117 20.7857 9.33246 13.8616C9.5294 12.8839 9.72422 11.9081 9.92116 10.9303C10.171 9.68171 8.28846 9.16196 7.87975 10.4006C7.87763 10.4046 7.87764 10.4106 7.87552 10.4145C8.56799 10.5022 9.26258 10.5918 9.95505 10.6794C9.92329 11.1454 10.0292 10.4245 10.0694 10.2891C10.1626 9.9864 10.2769 9.55825 10.5205 9.32326C10.8085 9.04447 11.1896 9.05044 11.5941 8.97079C12.547 8.78161 13.5 8.59242 14.4529 8.40921C17.4769 7.82374 20.5073 7.26815 23.544 6.74839C29.2765 5.76465 35.0343 4.90038 40.8176 4.21933C50.5038 3.07826 60.2767 2.41114 70.0433 2.62024C74.3019 2.71184 78.5583 2.97272 82.7894 3.44468C83.2616 3.49645 83.7339 3.55221 84.2061 3.60996C84.6593 3.66572 85.2628 3.60199 85.6758 3.79715C86.2412 4.064 86.1183 4.42046 86.0823 4.89242C86.0548 5.25485 86.0823 5.62923 86.0823 5.99166C86.0823 11.0319 86.0823 16.0721 86.0823 21.1143C86.0823 25.5969 86.0823 30.0815 86.0823 34.5642C86.0823 35.8446 88.2 35.8486 88.2 34.5642C88.2 25.0672 88.2 15.5722 88.2 6.0753C88.2 5.68698 88.1746 5.29069 88.2 4.90237C88.2169 4.62756 88.2614 3.86884 88.0031 3.3471C87.5732 2.47885 86.7261 1.93122 85.7329 1.76195C83.6661 1.41146 81.4786 1.29795 79.3842 1.11873C77.1205 0.925565 74.8503 0.79015 72.5802 0.70452C62.4367 0.324164 52.272 0.93353 42.2005 2.07061C35.5045 2.82734 28.8402 3.81308 22.2099 4.96411C18.612 5.58741 15.0226 6.2605 11.4437 6.97143C10.1202 7.23429 9.14611 7.4633 8.4854 8.65814C8.15081 9.26551 7.88399 9.99237 7.8374 10.6834C7.75905 11.8384 9.57387 11.9877 9.91693 10.9482C9.91905 10.9443 9.91904 10.9383 9.92116 10.9343C9.2414 10.7571 8.55952 10.5818 7.87975 10.4046C6.48846 17.3287 5.09929 24.2527 3.70799 31.1768C3.51105 32.1546 3.31623 33.1303 3.11929 34.1081C2.86729 35.3567 4.90869 35.8944 5.16069 34.6338Z" fill="#16180C"/>
<path d="M13.3412 39.5406C13.9595 42.5555 18.6353 42.3285 19.6941 41.7311C21.3289 40.8091 21.3882 36.9159 21.3882 30.9776C21.3882 25.0392 19.8233 20.2241 17.8941 20.2241C15.9649 20.2241 15.2979 24.0197 13.7647 29.7827C13.3412 31.3759 12.7885 37.0832 13.1294 38.744" fill="#16180C"/>
<path d="M21.3925 29.5737L21.5449 28.1259C21.5724 27.8611 21.6974 27.6142 21.8965 27.427C22.212 27.1303 22.7033 27.0844 23.0717 27.3154L23.6901 30.0297C23.6965 30.0616 23.7388 30.0715 23.7621 30.0496L28.135 25.7403C28.1456 25.7303 28.1499 25.7144 28.1456 25.7004L27.3049 23.1335C27.0317 22.0144 26.2652 20.9729 25.5473 20.0429L24.5541 18.7564C24.552 18.7545 24.5499 18.7525 24.5477 18.7505C22.6546 17.1554 21.5428 17.3266 19.4739 18.2586C19.063 18.4438 18.6861 18.6947 18.3621 18.9974C18.3621 18.9974 18.36 18.9994 18.36 19.0014L16.9412 20.5547C16.6849 20.8355 16.6362 21.2357 16.8205 21.5643L21.312 29.5876C21.3332 29.6235 21.3882 29.6135 21.3925 29.5737Z" fill="#16180C"/>
<path d="M38.5285 39.1842C37.9101 42.1991 33.2344 41.9721 32.1755 41.3747C30.5407 40.4527 30.0706 36.5177 30.0706 30.5794C30.0706 24.641 32.0443 19.8677 33.9755 19.8677C35.9068 19.8677 39.4243 22.7871 40.0235 28.9863C40.2353 31.1768 39.0812 36.7288 38.7403 38.3876" fill="#16180C"/>
<path d="M35.3456 29.6155L35.1932 28.1678C35.1656 27.9029 35.0407 27.656 34.8416 27.4688C34.5261 27.1721 34.0348 27.1263 33.6663 27.3573L33.048 30.0716C33.0416 30.1034 32.9993 30.1134 32.976 30.0915L28.603 25.7821C28.5925 25.7721 27.3155 26.6105 27.3198 26.5966L29.2256 23.2112C29.4988 22.092 30.4729 21.0167 31.1908 20.0867L32.184 18.8003C32.1861 18.7983 32.1882 18.7963 32.1903 18.7943C34.1238 17.1653 35.7543 17.251 37.908 18.2347C38.2786 18.404 38.6873 18.7485 38.9668 19.0313L39.3903 19.6287L39.799 20.5985C39.9642 20.7797 40.0002 22.7412 39.9557 24.2069C39.9219 25.1727 40.0235 28.7871 40.0235 29.3845L35.4261 29.6295C35.407 29.6653 35.3499 29.6554 35.3456 29.6155Z" fill="#16180C"/>
<path d="M29.8588 25.4017C29.9689 25.3081 29.9329 25.2842 29.8144 25.3061C28.8169 25.4834 27.7687 25.352 26.9344 24.8063C25.7273 24.0177 24.0713 24.2069 23.5059 24.2069C22.2184 24.2069 23.7177 28.588 23.5059 32.969C23.3047 37.145 22.0235 40.5363 25.6235 40.5363C29.0118 40.5363 27.9529 38.1466 27.9529 35.757C27.9529 34.9843 27.9529 34.1639 28.2304 33.1482C28.2939 32.9153 28.4654 32.7201 28.5459 32.4911L28.6264 32.2661C28.7407 31.9415 28.9059 31.6328 29.1155 31.352L30.113 30.0118C30.2167 29.8724 30.3332 29.743 30.456 29.6195C30.8224 29.2511 30.2887 29.5359 30.4941 27.7934C30.4666 27.7914 32.4 23.2112 29.8588 25.4017Z" fill="#16180C"/>
<path d="M46.5882 30.0815C46.5882 24.9676 45.3558 20.8216 43.8353 20.8216C42.3148 20.8216 41.7177 25.0015 41.0824 30.0815C40.4471 35.1596 38.3294 41.1338 42.9882 41.1338C45.7412 41.1338 46.5882 35.1954 46.5882 30.0815Z" fill="#16180C"/>
<path d="M53.1529 32.3717C53.1529 27.1482 52.111 21.0207 50.8235 21.0207C49.536 21.0207 48.4941 25.2026 47.8588 30.3803C47.2235 35.5579 45.9529 39.7398 49.3412 40.7355C50.5694 41.0959 53.1529 37.5951 53.1529 32.3717Z" fill="#16180C"/>
<path d="M46.2494 25.3301L46.3743 23.8345C46.3765 23.8166 46.3786 23.7987 46.3828 23.7827C46.5882 22.809 46.5925 22.6098 47.0118 22.2155L47.0901 22.0682C47.4353 21.8172 47.8588 21.6181 48.1341 21.6301C48.5936 21.65 48.8816 21.8491 49.0913 22.2832C49.1082 22.3191 49.1209 22.3569 49.1273 22.3947L49.2459 23.0678C49.2543 23.1136 49.2522 23.1634 49.2459 23.2092C49.1527 23.8047 49.4428 23.7569 49.6165 24.0138L52.3461 27.7695C52.56 28.0642 52.9412 33.9627 53.1064 27.6122C53.1064 27.6102 53.1064 27.6082 53.1064 27.6062L53.1381 27.423C53.1487 27.3633 53.1551 27.3015 53.1572 27.2418L53.1529 21.6181C53.1529 20.8216 52.5176 19.4276 52.5176 19.4276C52.3694 19.0094 52.2169 18.7824 52.0475 18.4618C51.8464 18.0794 51.5541 17.7429 51.2047 17.47L50.6118 17.0379C50.5482 17.006 50.4847 16.9403 50.2158 16.8507C49.7435 16.6934 49.2014 16.5739 48.7059 16.6396L47.8588 16.8388C47.8101 16.8507 46.8423 17.2112 46.8 17.237L45.7412 17.8345C45.7052 17.8564 44.9365 18.3861 44.4706 18.8302L44.1847 19.099C43.9454 19.324 43.7463 19.5849 43.596 19.8717C43.5049 20.0469 43.4202 20.2102 43.4118 20.2241L42.823 21.6181C42.7447 21.7635 42.7553 21.9367 42.8527 22.0702L45.3918 25.5451C45.5442 25.7542 45.8513 25.8 46.0652 25.6447C46.1711 25.571 46.2388 25.4555 46.2494 25.3301Z" fill="#16180C"/>
<path d="M47.3294 31.5751C49.2592 31.5751 50.8235 30.8618 50.8235 29.982C50.8235 29.1021 49.2592 28.3889 47.3294 28.3889C45.3997 28.3889 43.8353 29.1021 43.8353 29.982C43.8353 30.8618 45.3997 31.5751 47.3294 31.5751Z" fill="#16180C"/>
<path d="M61.6235 27.891C61.4541 28.5621 60.8972 30.9617 59.6096 35.7331C59.3873 36.5595 60.2471 39.3813 59.9294 39.3415C59.8765 39.3355 58.4619 38.3717 58.4471 38.3458C57.7567 37.1151 56.7339 36.5416 56.3294 34.5622C56.2595 34.2216 56.251 33.9667 56.2172 33.8054C55.6941 31.1768 55.2706 29.1854 55.2706 27.891C55.2706 22.118 56.7529 16.6396 59.2941 17.0379C62.3351 17.5139 63.0487 22.2753 61.6235 27.891Z" fill="#16180C"/>
<path d="M69.4588 27.7915C68.3661 33.7517 63.7412 40.7355 63.3177 39.3415C62.8348 37.7544 63.1059 33.8413 63.1059 27.7915C63.1059 21.7416 66.2824 18.0336 68.1882 18.4319C71.909 19.2086 70.5177 22.0164 69.4588 27.7915Z" fill="#16180C"/>
<path d="M56.5412 37.151C56.628 37.6389 56.6704 37.7962 56.7529 38.3458C56.9647 39.7398 58.6906 41.3449 59.0824 41.5321C59.4148 41.6914 60.3148 42.1215 61.4118 41.9304C62.1021 41.8089 62.532 41.5002 63.3177 40.9347C63.7348 40.634 64.1817 40.152 64.8 39.3415C65.5052 38.4155 66.7059 35.9562 66.7059 34.3631C66.7059 33.2698 63.7412 33.3674 63.3177 34.5622C63.1588 35.0103 62.6824 36.9519 61.8353 38.1467C61.6235 38.4454 60.7765 39.3415 60.3529 38.9433C59.6838 38.314 59.2941 36.7527 59.2941 35.3588C59.2941 33.9807 57.0367 32.2402 56.5412 32.7699C56.2553 33.0746 56.3294 35.9562 56.5412 37.151Z" fill="#16180C"/>
<path d="M20.3104 57.8316C20.3104 52.3194 18.8365 47.8507 17.0174 47.8507C15.1984 47.8507 13.4661 52.3871 12.7059 57.8614C11.9457 63.3338 9.25202 70.6063 14.8235 70.6063C18.1165 70.6063 20.3104 63.3437 20.3104 57.8316Z" fill="#16180C"/>
<path d="M28.1605 60.3009C28.1605 54.6713 26.9132 48.0678 25.3758 48.0678C23.8383 48.0678 22.5911 52.5743 21.8308 58.1562C21.0706 63.7361 21.3628 68.7385 25.4139 69.8118C26.8793 70.1981 28.1605 65.9306 28.1605 60.3009Z" fill="#16180C"/>
<path d="M19.692 52.9108L19.8424 51.2978C19.8445 51.2799 19.8466 51.26 19.8509 51.242C20.0965 50.1946 20.1029 49.9795 20.6047 49.5533L20.6979 49.396C21.1109 49.1252 21.617 48.9101 21.9473 48.9241C22.4958 48.946 22.841 49.159 23.0909 49.627C23.112 49.6649 23.1247 49.7067 23.1332 49.7465L23.2751 50.4714C23.2857 50.5212 23.2836 50.5749 23.2751 50.6247C23.1628 51.2659 23.5101 51.2162 23.7177 51.491L26.9831 55.5395C27.2393 55.8561 27.6946 62.2146 27.8916 55.3702C27.8916 55.3682 27.8916 55.3662 27.8916 55.3642L27.9276 55.1671C27.9403 55.1014 27.9466 55.0376 27.9509 54.9719L27.9466 48.9121C27.9466 48.0538 27.1864 46.5503 27.1864 46.5503C27.0085 46.1003 26.8264 45.8553 26.6252 45.5088C26.3838 45.0966 26.0344 44.7342 25.6172 44.4394L24.9078 43.9735C24.8337 43.9396 24.7574 43.8699 24.4334 43.7723C23.8702 43.6011 23.22 43.4736 22.6271 43.5453L21.6149 43.7604C21.5556 43.7743 20.3993 44.1607 20.3485 44.1905L19.0821 44.8337C19.0398 44.8576 18.1207 45.4272 17.5638 45.9071L17.2207 46.1978C16.9349 46.4408 16.6956 46.7216 16.5177 47.0302C16.4076 47.2194 16.308 47.3947 16.2974 47.4106L15.0353 49.8959C14.94 50.0512 15.516 49.2526 15.6325 49.398L18.6692 53.1438C18.8513 53.3688 19.2198 53.4186 19.4739 53.2514C19.601 53.1697 19.6793 53.0442 19.692 52.9108Z" fill="#16180C"/>
<path d="M21.4073 57.8475C23.7148 57.8475 25.5854 57.079 25.5854 56.1309C25.5854 55.1829 23.7148 54.4143 21.4073 54.4143C19.0998 54.4143 17.2292 55.1829 17.2292 56.1309C17.2292 57.079 19.0998 57.8475 21.4073 57.8475Z" fill="#16180C"/>
<path d="M45.6649 57.3934C45.6649 51.8812 44.1911 47.4126 42.372 47.4126C40.5529 47.4126 39.8393 51.9191 39.079 57.3934C38.3188 62.8658 35.7861 69.3059 41.3576 69.3059C44.6527 69.3039 45.6649 62.9056 45.6649 57.3934Z" fill="#16180C"/>
<path d="M53.5151 59.8608C53.5151 54.2311 52.2678 47.6277 50.7303 47.6277C49.1929 47.6277 47.9456 52.1342 47.1854 57.716C46.4252 63.2959 44.9068 67.8044 48.9579 68.8758C50.4254 69.2641 53.5151 65.4904 53.5151 59.8608Z" fill="#16180C"/>
<path d="M45.2583 52.2736L45.4087 50.6606C45.4108 50.6426 45.4129 50.6227 45.4172 50.6048C45.6628 49.5573 45.6692 49.3423 46.1711 48.9161L46.2642 48.7588C46.6772 48.4879 47.1833 48.2729 47.5136 48.2868C48.0621 48.3087 48.4073 48.5218 48.6572 48.9898C48.6784 49.0276 48.691 49.0694 48.6995 49.1093L48.8414 49.8341C48.852 49.8839 48.8499 49.9377 48.8414 49.9875C48.7292 50.6287 49.0765 50.5789 49.284 50.8537L52.5494 54.9022C52.8056 55.2189 53.2609 61.5774 53.4579 54.733C53.4579 54.731 53.4579 54.729 53.4579 54.727L53.4939 54.5298C53.5066 54.4641 53.5129 54.4004 53.5172 54.3347L53.5129 48.2749C53.5129 47.4166 52.7527 45.9131 52.7527 45.9131C52.5748 45.463 52.3927 45.2181 52.1915 44.8716C51.9501 44.4594 51.6007 44.0969 51.1835 43.8022L50.4741 43.3362C50.4 43.3024 50.3238 43.2327 49.9998 43.1351C49.4365 42.9638 48.7864 42.8364 48.1934 42.9081L47.1812 43.1231C47.1219 43.1371 45.9656 43.5234 45.9148 43.5533L44.6485 44.1965C44.6061 44.2204 43.6871 44.7899 43.1301 45.2699L42.7871 45.5606C42.5012 45.8036 42.2619 46.0843 42.084 46.393C41.9739 46.5822 41.8743 46.7574 41.8638 46.7734L41.1607 48.2769C41.0654 48.4322 41.0802 48.6194 41.1967 48.7648L44.2334 52.5106C44.4155 52.7356 44.784 52.7854 45.0381 52.6181C45.1673 52.5305 45.2456 52.407 45.2583 52.2736Z" fill="#16180C"/>
<path d="M46.5522 59.0024C48.8598 59.0024 50.7304 58.2339 50.7304 57.2859C50.7304 56.3378 48.8598 55.5693 46.5522 55.5693C44.2447 55.5693 42.3741 56.3378 42.3741 57.2859C42.3741 58.2339 44.2447 59.0024 46.5522 59.0024Z" fill="#16180C"/>
<path d="M77.7177 29.7828C77.2941 35.9562 78.4779 41.4325 74.1177 40.1381C70.0941 38.9432 72 35.1596 72.6353 28.9863C73.26 22.9105 72.108 17.6254 76.0235 18.0336C79.8353 18.4319 78.1581 23.3745 77.7177 29.7828Z" fill="#16180C"/>
<path d="M77.9294 10.0681C77.7177 12.0594 77.2941 13.4534 75.8118 13.2543C74.5369 13.083 74.5412 11.8284 74.5412 10.0681C74.5412 8.30766 75.3882 6.68269 76.6588 6.88183C78.3762 7.15066 78.1412 8.06869 77.9294 10.0681Z" fill="#16180C"/>
<path d="M36.1757 56.6965C35.0979 62.7981 36.3367 69.9094 31.9765 68.615C27.9529 67.4201 30.2823 61.0477 30.9176 54.8744C31.5423 48.7986 31.2374 43.3143 35.1529 43.7226C38.9647 44.1209 37.2706 50.4933 36.1757 56.6965Z" fill="#16180C"/>
<path d="M45.7412 63.6365C45.9529 67.6193 41.8892 68.2167 38.9647 68.2167C36.0402 68.2167 29.6471 71.2038 31.5529 64.6322C32.1226 62.6687 36.3155 60.8167 38.9647 59.6537C42.1412 58.2597 45.6332 61.6053 45.7412 63.6365Z" fill="#16180C"/>
<path d="M70.4817 60.4801C70.3059 66.4244 74.3294 71.2038 66.8817 70.8354C61.2064 70.5546 63.3177 64.8313 65.3993 59.6836C67.7054 53.9782 64.872 48.3227 68.7875 48.7309C72.5993 49.1292 70.6701 54.0599 70.4817 60.4801Z" fill="#16180C"/>
<path d="M80.4706 47.5062C80.0471 51.489 77.4296 49.6968 72.6353 49.6968C67.8409 49.6968 62.9238 51.9968 62.2588 47.3071C62.0471 45.8136 67.1231 45.9609 71.7882 44.9174C76.2353 43.9217 81.1461 41.1617 80.4706 47.5062Z" fill="#16180C"/>
<path d="M57.4158 58.2996C59.5059 62.2425 58.176 69.9492 53.8158 68.6548C49.7922 67.46 51.6981 63.6763 52.3334 57.503C52.9581 51.4273 51.3551 44.31 55.2706 44.7183C59.0824 45.1165 54.3685 52.5524 57.4158 58.2996Z" fill="#16180C"/>
<path d="M62.0471 56.2683C65.8588 61.0476 66.1278 72.0381 62.0746 70.0487C56.5137 67.3205 61.4118 60.4502 58.0235 56.8657C57.42 56.2265 58.0405 54.4442 58.4471 53.6795C58.8706 52.8829 59.5588 52.5722 60.1412 51.4889C61.1301 49.6529 60.9141 48.8324 61.7146 48.3186C62.5913 47.7531 63.8301 47.9303 63.9826 47.9443C67.7922 48.3425 61.8671 56.0432 62.0471 56.2683Z" fill="#16180C"/>
<path d="M65.0118 50.6924C60.1327 57.7797 63.2414 48.1036 58.4471 48.1036C53.6527 48.1036 56.1177 63.039 52.3059 49.6967C51.8908 48.241 52.7231 43.9694 57.3882 42.926C61.8353 41.9303 68.6965 45.3395 65.0118 50.6924Z" fill="#16180C"/>
</svg>
